<svg width="1920" height="1080" viewBox="0 0 1920 1080" fill="none" xmlns="http://www.w3.org/2000/svg">
<g clip-path="url(#clip0)">
<rect width="1920" height="1080" fill="white"/>
<line x1="67.5" y1="1158.16" x2="67.5" y2="-79" stroke="black" stroke-opacity="0.1"/>
<line x1="137.5" y1="1158.16" x2="137.5" y2="-79" stroke="black" stroke-opacity="0.1"/>
<line x1="207.5" y1="1158.16" x2="207.5" y2="-79" stroke="black" stroke-opacity="0.1"/>
<line x1="267.5" y1="1158.16" x2="267.5" y2="-79" stroke="black" stroke-opacity="0.1"/>
<line x1="337.5" y1="1158.16" x2="337.5" y2="-79" stroke="black" stroke-opacity="0.1"/>
<line x1="407.5" y1="1158.16" x2="407.5" y2="-79" stroke="black" stroke-opacity="0.1"/>
<line x1="477.5" y1="1158.16" x2="477.5" y2="-79" stroke="black" stroke-opacity="0.1"/>
<line x1="547.5" y1="1158.16" x2="547.5" y2="-79" stroke="black" stroke-opacity="0.1"/>
<line x1="617.5" y1="1158.16" x2="617.5" y2="-79" stroke="black" stroke-opacity="0.1"/>
<line x1="677.5" y1="1158.16" x2="677.5" y2="-79" stroke="black" stroke-opacity="0.1"/>
<line x1="747.5" y1="1158.16" x2="747.5" y2="-79" stroke="black" stroke-opacity="0.1"/>
<line x1="817.5" y1="1158.16" x2="817.5" y2="-79" stroke="black" stroke-opacity="0.1"/>
<line x1="877.5" y1="1158.16" x2="877.5" y2="-79" stroke="black" stroke-opacity="0.1"/>
<line x1="947.5" y1="1158.16" x2="947.5" y2="-79" stroke="black" stroke-opacity="0.1"/>
<line x1="1017.5" y1="1158.16" x2="1017.5" y2="-79" stroke="black" stroke-opacity="0.1"/>
<line x1="1087.5" y1="1158.16" x2="1087.5" y2="-79" stroke="black" stroke-opacity="0.1"/>
<line x1="1157.5" y1="1158.16" x2="1157.5" y2="-79" stroke="black" stroke-opacity="0.1"/>
<line x1="1227.5" y1="1158.16" x2="1227.5" y2="-79" stroke="black" stroke-opacity="0.1"/>
<line x1="1297.5" y1="1158.16" x2="1297.5" y2="-79" stroke="black" stroke-opacity="0.1"/>
<line x1="1367.5" y1="1158.16" x2="1367.5" y2="-79" stroke="black" stroke-opacity="0.1"/>
<line x1="1437.5" y1="1158.16" x2="1437.5" y2="-79" stroke="black" stroke-opacity="0.1"/>
<line x1="1497.5" y1="1158.16" x2="1497.5" y2="-79" stroke="black" stroke-opacity="0.1"/>
<line x1="1567.5" y1="1158.16" x2="1567.5" y2="-79" stroke="black" stroke-opacity="0.1"/>
<line x1="1637.5" y1="1158.16" x2="1637.5" y2="-79" stroke="black" stroke-opacity="0.1"/>
<line x1="1707.5" y1="1158.16" x2="1707.5" y2="-79" stroke="black" stroke-opacity="0.1"/>
<line x1="1777.5" y1="1158.16" x2="1777.5" y2="-79" stroke="black" stroke-opacity="0.1"/>
<line x1="1847.5" y1="1158.16" x2="1847.5" y2="-79" stroke="black" stroke-opacity="0.1"/>
<line x1="1907.5" y1="1158.16" x2="1907.5" y2="-79" stroke="black" stroke-opacity="0.1"/>
<line x1="1972" y1="1066.02" x2="-128" y2="1066.02" stroke="black" stroke-opacity="0.1"/>
<line x1="1972" y1="998.763" x2="-128" y2="998.763" stroke="black" stroke-opacity="0.1"/>
<line x1="1972" y1="920.302" x2="-128" y2="920.302" stroke="black" stroke-opacity="0.1"/>
<line x1="1972" y1="841.84" x2="-128" y2="841.84" stroke="black" stroke-opacity="0.1"/>
<line x1="1972" y1="774.587" x2="-128" y2="774.587" stroke="black" stroke-opacity="0.1"/>
<line x1="1972" y1="696.126" x2="-128" y2="696.126" stroke="black" stroke-opacity="0.1"/>
<line x1="1972" y1="617.664" x2="-128" y2="617.664" stroke="black" stroke-opacity="0.1"/>
<line x1="1972" y1="539.202" x2="-128" y2="539.202" stroke="black" stroke-opacity="0.1"/>
<line x1="1972" y1="460.741" x2="-128" y2="460.741" stroke="black" stroke-opacity="0.1"/>
<line x1="1972" y1="382.279" x2="-128" y2="382.279" stroke="black" stroke-opacity="0.1"/>
<line x1="1972" y1="303.818" x2="-128" y2="303.818" stroke="black" stroke-opacity="0.1"/>
<line x1="1972" y1="225.356" x2="-128" y2="225.356" stroke="black" stroke-opacity="0.1"/>
<line x1="1972" y1="146.894" x2="-128" y2="146.894" stroke="black" stroke-opacity="0.1"/>
<line x1="1972" y1="79.6416" x2="-128" y2="79.6416" stroke="black" stroke-opacity="0.1"/>
<line x1="1972" y1="1.18005" x2="-128" y2="1.18005" stroke="black" stroke-opacity="0.1"/>
<rect x="407.5" y="382.5" width="70" height="78" stroke="#2400FF" stroke-opacity="0.2"/>
<rect x="677.5" y="146.5" width="70" height="78" stroke="#2400FF" stroke-opacity="0.2"/>
<rect x="747.5" y="538.5" width="70" height="78" stroke="#2400FF" stroke-opacity="0.2"/>
<rect x="1228.5" y="382.5" width="70" height="78" stroke="#2400FF" stroke-opacity="0.2"/>
<rect x="1367.5" y="696.5" width="70" height="78" stroke="#2400FF" stroke-opacity="0.2"/>
<rect x="1497.5" y="382.5" width="70" height="78" stroke="#2400FF" stroke-opacity="0.2"/>
<rect x="1707.5" y="617.5" width="70" height="78" stroke="#2400FF" stroke-opacity="0.2"/>
<rect x="1778.5" y="146.5" width="70" height="78" stroke="#2400FF" stroke-opacity="0.2"/>
<rect x="1567.5" y="146.5" width="70" height="78" stroke="#2400FF" stroke-opacity="0.2"/>
<rect x="1568.5" y="920.5" width="70" height="78" stroke="#2400FF" stroke-opacity="0.2"/>
<rect x="208.5" y="919.5" width="70" height="78" stroke="#2400FF" stroke-opacity="0.2"/>
<rect x="138.5" y="146.5" width="70" height="78" stroke="#2400FF" stroke-opacity="0.2"/>
<rect x="877.5" y="1.5" width="70" height="78" stroke="#2400FF" stroke-opacity="0.2"/>
<rect x="-2.5" y="459.5" width="70" height="78" stroke="#2400FF" stroke-opacity="0.2"/>
<rect x="268.5" y="617.5" width="70" height="78" stroke="#2400FF" stroke-opacity="0.2"/>
<rect x="618.5" y="919.5" width="60" height="78" stroke="#2400FF" stroke-opacity="0.2"/>
<rect x="1088.5" y="146.5" width="70" height="78" stroke="#2400FF" stroke-opacity="0.2"/>
<rect x="1088.5" y="774.5" width="70" height="66" stroke="#2400FF" stroke-opacity="0.2"/>
</g>
<defs>
<clipPath id="clip0">
<rect width="1920" height="1080" fill="white"/>
</clipPath>
</defs>
</svg>
